<svg width="95" height="26" viewBox="0 0 95 26" fill="none" xmlns="http://www.w3.org/2000/svg">
<path d="M9.6204 25.5452C7.80978 25.5452 6.23449 25.1808 4.89452 24.4493C3.55179 23.7177 2.51636 22.6935 1.7827 21.3712C1.04904 20.0488 0.683594 18.5029 0.683594 16.7278V9.07529C0.683594 7.30296 1.04904 5.75424 1.7827 4.4319C2.51636 3.10955 3.55179 2.08535 4.89452 1.35379C6.23449 0.622216 7.82639 0.257812 9.66746 0.257812C11.5085 0.257812 12.9509 0.608413 14.2771 1.30685C15.6032 2.00806 16.6248 2.97152 17.3418 4.2C18.0589 5.42849 18.4188 6.85297 18.4188 8.46795C18.4188 9.15258 18.2084 9.70471 17.7876 10.1243C17.3667 10.5439 16.8296 10.7538 16.1735 10.7538C15.4565 10.7538 14.8944 10.5522 14.4902 10.1464C14.0833 9.74336 13.8673 9.19675 13.8341 8.51212C13.8341 7.26983 13.4742 6.28152 12.7571 5.54995C12.0401 4.81838 11.0102 4.45398 9.67023 4.45398C8.33026 4.45398 7.25331 4.85151 6.53626 5.64382C5.81921 6.43612 5.4593 7.51829 5.4593 8.88756V16.9127C5.4593 18.282 5.81091 19.3614 6.51134 20.1565C7.21178 20.9515 8.24998 21.3463 9.62317 21.3463C10.9964 21.3463 12.0401 20.9819 12.7571 20.2503C13.4742 19.5188 13.8341 18.5332 13.8341 17.2882C13.8646 16.6035 14.0833 16.0597 14.4902 15.6539C14.8972 15.2481 15.4565 15.0465 16.1735 15.0465C16.8296 15.0465 17.3667 15.2481 17.7876 15.6539C18.2084 16.0597 18.4188 16.6035 18.4188 17.2882C18.4188 19.7451 17.6242 21.7356 16.0323 23.2594C14.4404 24.7833 12.3059 25.5452 9.62317 25.5452H9.6204Z" fill="black"/>
<path d="M29.2702 25.5452C27.3986 25.5452 25.7624 25.1808 24.356 24.4493C22.9524 23.7177 21.8754 22.6935 21.1279 21.3712C20.3804 20.0488 20.0039 18.5029 20.0039 16.7278V9.07529C20.0039 7.30296 20.3694 5.75424 21.103 4.4319C21.8367 3.10955 22.8721 2.08535 24.2148 1.35379C25.5548 0.622216 27.1467 0.257812 28.9878 0.257812C30.8288 0.257812 32.418 0.616695 33.7607 1.3317C35.1007 2.0467 36.1389 3.06538 36.8725 4.38772C37.6062 5.71007 37.9716 7.27259 37.9716 9.07805V11.5046C37.9716 12.4377 37.7225 13.1389 37.2241 13.6055C36.7258 14.072 36.0226 14.3067 35.1201 14.3067H24.6384V17.0121C24.6384 18.3814 25.0205 19.4608 25.7846 20.2559C26.5487 21.0482 27.7115 21.4457 29.2702 21.4457C30.4246 21.4457 31.3438 21.189 32.0304 20.6755C32.717 20.162 33.1987 19.5326 33.4811 18.7872C33.6998 18.2599 33.9877 17.8541 34.3476 17.5753C34.7048 17.2965 35.1339 17.1557 35.635 17.1557C36.2579 17.1557 36.7646 17.3517 37.1549 17.7382C37.5453 18.1274 37.7391 18.6326 37.7391 19.2538C37.7391 19.7507 37.6145 20.2724 37.3653 20.8163C37.1162 21.3601 36.867 21.788 36.6178 22.1C35.9312 23.1904 34.9567 24.0352 33.6943 24.6425C32.4318 25.2499 30.9562 25.5508 29.2729 25.5508L29.2702 25.5452ZM24.6384 8.79646V10.6627H33.3399V8.79646C33.3399 7.42719 32.98 6.34778 32.2629 5.55271C31.5459 4.76041 30.4523 4.36288 28.9878 4.36288C27.5232 4.36288 26.4684 4.76041 25.7348 5.55271C25.0011 6.34502 24.6357 7.42719 24.6357 8.79646H24.6384Z" fill="black"/>
<path d="M42.699 25.4514C42.0428 25.4514 41.4836 25.2195 41.0157 24.7502C40.5478 24.2809 40.3125 23.7232 40.3125 23.0717V2.73134C40.3125 2.0467 40.5478 1.48077 41.0157 1.02803C41.4836 0.578046 42.0456 0.351674 42.699 0.351674C43.3523 0.351674 43.9531 0.578046 44.4072 1.02803C44.8584 1.47801 45.0854 2.0467 45.0854 2.73134V4.92329C45.21 4.23865 45.5229 3.54573 46.0212 2.84729C46.5195 2.14609 47.2061 1.54151 48.081 1.02803C48.9531 0.514551 49.9996 0.257812 51.215 0.257812C53.3052 0.257812 55.0106 0.950732 56.3367 2.33381C57.6629 3.71689 58.3245 5.79565 58.3245 8.56181V23.0717C58.3245 23.726 58.0975 24.2836 57.6463 24.7502C57.195 25.2167 56.6247 25.4514 55.9381 25.4514C55.2515 25.4514 54.6812 25.2195 54.2299 24.7502C53.7786 24.2836 53.5516 23.7232 53.5516 23.0717V9.07529C53.5516 7.55141 53.1834 6.40023 52.4525 5.62173C51.7188 4.84599 50.7443 4.45674 49.5289 4.45674C48.1862 4.45674 47.112 4.93985 46.3008 5.90331C45.4896 6.86678 45.0854 8.14219 45.0854 9.72956V23.0717C45.0854 23.726 44.8584 24.2836 44.4072 24.7502C43.9559 25.2167 43.3856 25.4514 42.699 25.4514Z" fill="black"/>
<path d="M74.6461 4.60007H61.2935C60.6291 4.60007 60.0698 4.39854 59.6186 3.99273C59.1645 3.58968 58.9375 3.10657 58.9375 2.54616C58.9375 1.95538 59.1645 1.45847 59.6186 1.05265C60.0726 0.6496 60.6318 0.445312 61.2935 0.445312H74.6461C75.3078 0.445312 75.8587 0.641318 76.2962 1.02781C76.7308 1.41706 76.9495 1.92225 76.9495 2.5434C76.9495 3.10381 76.7308 3.58692 76.2962 3.98997C75.8587 4.39578 75.3106 4.59731 74.6461 4.59731V4.60007Z" fill="black"/>
<path d="M85.7136 25.5475C83.7175 25.5475 82.0397 25.1666 80.6832 24.4046C79.3266 23.6427 78.3355 22.7013 77.7125 21.5833C77.3997 21.0863 77.1893 20.6419 77.0813 20.2526C76.9706 19.8634 76.918 19.499 76.918 19.1567C76.918 18.5355 77.145 18.0303 77.5963 17.6411C78.0475 17.2518 78.5874 17.0586 79.2103 17.0586C79.6145 17.0586 79.9827 17.169 80.3094 17.3843C80.6361 17.6024 80.9102 17.9144 81.1289 18.3174C81.3172 18.6901 81.4805 19.0628 81.6189 19.4382C81.7601 19.8109 82.0176 20.1836 82.3914 20.5591C82.7651 20.9014 83.2164 21.1498 83.7479 21.3044C84.2767 21.4618 84.9162 21.5363 85.6665 21.5363C87.1006 21.5363 88.1222 21.2327 88.7313 20.6281C89.3404 20.0207 89.6449 19.314 89.6449 18.5052C89.6449 17.7901 89.4123 17.2159 88.9417 16.7798C88.4738 16.3436 87.873 15.9792 87.1394 15.6838C86.4057 15.3884 85.6028 15.1013 84.7308 14.8197C83.5763 14.447 82.4218 14.0108 81.2673 13.5139C80.1129 13.017 79.1633 12.302 78.413 11.3689C77.6627 10.4358 77.289 9.13003 77.289 7.4488C77.289 6.14302 77.6156 4.9449 78.2718 3.85721C78.9279 2.76952 79.8775 1.89716 81.1261 1.24565C82.372 0.59138 83.8864 0.265625 85.6638 0.265625C87.5657 0.265625 89.1742 0.624508 90.4838 1.33951C91.7933 2.05452 92.7456 3.00418 93.3381 4.18573C93.6482 4.62191 93.8531 5.02496 93.9472 5.39765C94.0413 5.77033 94.0884 6.11265 94.0884 6.42461C94.0884 7.07888 93.8863 7.59788 93.4793 7.98713C93.0723 8.37638 92.5435 8.56962 91.8874 8.56962C91.4804 8.56962 91.1067 8.46196 90.7634 8.24387C90.4201 8.02578 90.1405 7.71382 89.9217 7.31077C89.7335 6.96845 89.5784 6.62613 89.4539 6.28381C89.3293 5.94149 89.0801 5.59918 88.7064 5.25686C88.0198 4.60259 87.0231 4.27683 85.7108 4.27683C84.5259 4.27683 83.5984 4.55013 82.9284 5.09398C82.2585 5.63782 81.9235 6.40804 81.9235 7.40463C81.9235 8.0589 82.1422 8.61103 82.5796 9.06101C83.017 9.511 83.5929 9.87816 84.3099 10.157C85.027 10.4358 85.7911 10.7174 86.6023 10.9962C87.4744 11.2447 88.3631 11.5401 89.2684 11.8824C90.1737 12.2247 91.007 12.6526 91.7711 13.1661C92.5352 13.6796 93.1526 14.3559 93.6205 15.1951C94.0884 16.0344 94.3237 17.0917 94.3237 18.3671C94.3237 19.6425 94.0026 20.7385 93.3658 21.8428C92.7263 22.947 91.7822 23.8415 90.5364 24.5261C89.2877 25.2107 87.682 25.5531 85.7163 25.5531L85.7136 25.5475Z" fill="black"/>
<path d="M67.9921 25.545C67.3055 25.545 66.7297 25.3131 66.2618 24.8438C65.7939 24.3745 65.5586 23.8169 65.5586 23.1654V2.82498C65.5586 2.14034 65.7939 1.57441 66.2618 1.12167C66.7297 0.671684 67.3055 0.445312 67.9921 0.445312C68.6787 0.445312 69.238 0.671684 69.6754 1.12167C70.1128 1.57165 70.3315 2.14034 70.3315 2.82498V23.1654C70.3315 23.8196 70.1128 24.3773 69.6754 24.8438C69.238 25.3104 68.676 25.545 67.9921 25.545Z" fill="black"/>
</svg>
